<svg viewBox="0 0 36 36" fill="none" xmlns="http://www.w3.org/2000/svg">
				<path d="M20.0806 17.9986L30.6275 5.42673C30.8043 5.2178 30.6556 4.90039 30.3824 4.90039H27.1762C26.9873 4.90039 26.8065 4.98477 26.682 5.12941L17.9833 15.4995L9.28465 5.12941C9.16411 4.98477 8.98331 4.90039 8.79045 4.90039H5.5842C5.31099 4.90039 5.16233 5.2178 5.33911 5.42673L15.886 17.9986L5.33911 30.5705C5.29951 30.6171 5.2741 30.674 5.26591 30.7346C5.25771 30.7952 5.26708 30.8568 5.29288 30.9122C5.31869 30.9677 5.35985 31.0145 5.41149 31.0472C5.46313 31.0799 5.52307 31.0972 5.5842 31.0968H8.79045C8.97929 31.0968 9.16009 31.0124 9.28465 30.8678L17.9833 20.4977L26.682 30.8678C26.8025 31.0124 26.9833 31.0968 27.1762 31.0968H30.3824C30.6556 31.0968 30.8043 30.7794 30.6275 30.5705L20.0806 17.9986Z" fill="white"/>
			</svg>